<svg xmlns="http://www.w3.org/2000/svg" viewBox="0 0 175 189.278"><path fill="#efedea" d="M129.819 11.461c.8-1.913 1.477-3.8 2.349-5.6 2.623-5.4 5.675-6.8 11.466-5.3 6.3 1.647 11.7 5.081 16.749 9.02a50.646 50.646 0 0 1 11.845 12.842c4.5 7.131 3.62 11.192-3.374 15.914-1 .674-2.022 1.308-3.156 2.038a8.873 8.873 0 0 1 .218 10.748c-1.392 2.155-3.33 3.257-5.788 2.8-2.349-.436-4.6-1.356-6.926-1.986-.626-.17-1.57-.359-1.961-.036-3.8 3.108-7.019 6.7-8.419 11.547a12.8 12.8 0 0 0 1.376 10.296 75.873 75.873 0 0 1 10.126 37.538 77.166 77.166 0 1 1-92.126-74.984 75.187 75.187 0 0 1 38.039 2.147c5.255 1.687 10.122.674 13.98-3.209 2.426-2.442 4.266-5.481 6.235-8.342.319-.464.1-1.465-.149-2.115-.331-.864-.985-1.6-1.4-2.442-1.247-2.555-2.216-5.227-.141-7.757 2.365-2.886 5.408-4.371 9.258-3.584.581.117 1.146.295 1.8.464Zm-6.8 16.886a98.474 98.474 0 0 1-6.453 8.12c-4.835 4.952-10.679 6.381-17.375 4.242a71.415 71.415 0 0 0-36.251-2.05 74.662 74.662 0 0 0-59.1 87.729c7.717 40.723 48.116 67.59 88.532 58.884a74.8 74.8 0 0 0 49.575-110.483 15.421 15.421 0 0 1-2.046-8.9c.375-5.348 3.213-9.444 6.74-13.181.852-.9 1.768-1.748 2.765-2.724a119.949 119.949 0 0 1-26.391-21.645Zm37.623 13.7c-1.949-.642-4.722-1.041-6.934-2.373a95.2 95.2 0 0 1-22.31-18.349 7.507 7.507 0 0 1-2.026-5.921 1.936 1.936 0 0 0-.428-1.417c-1.287-1.219-4.355-.961-6.449.44-2.252 1.509-3.031 2.954-2.083 5.037a26.367 26.367 0 0 0 3.721 6.159 101.7 101.7 0 0 0 28.942 23.457 29.982 29.982 0 0 0 5.214 2.087c1.675.541 3.5.94 4.9-.589a6.375 6.375 0 0 0 1.723-6.316c-.497-1.664-1.227-3.282-4.271-2.217ZM140.45 2.235a5.238 5.238 0 0 0-4.96 2.813 55.113 55.113 0 0 0-3.083 6.978 8.07 8.07 0 0 0 1.949 9.053 125.45 125.45 0 0 0 19.134 15.719 12.752 12.752 0 0 0 4.375 1.978c1.651.355 3.7.714 5.081.04a47.373 47.373 0 0 0 7.818-5.251 4.544 4.544 0 0 0 1.334-5.667 26.485 26.485 0 0 0-2.781-5.336 53.947 53.947 0 0 0-22.943-18.483 55.3 55.3 0 0 0-5.921-1.836Z" data-name="Path 5"/><path fill="#efedea" d="M135.472 4.594a41.379 41.379 0 0 1 5.616 1.985 71.981 71.981 0 0 1 25.473 20.636 22.748 22.748 0 0 1 3.426 6.456c1.026 2.992-.845 5.315-4.022 5.062a18.322 18.322 0 0 1-6.164-1.57 71.459 71.459 0 0 1-27.115-21.905 18.193 18.193 0 0 1-2.643-5.019c-1.222-3.569.53-5.773 5.43-5.64Zm-.63 2.834c-2.142-.134-2.643.654-2.037 2.018a20.3 20.3 0 0 0 2.161 3.951 68.867 68.867 0 0 0 26 21.1 20.5 20.5 0 0 0 4.308 1.326c1.713.377 2.543-.32 1.765-2.071a19.66 19.66 0 0 0-2.176-3.941 68.379 68.379 0 0 0-26.266-21.127 32.3 32.3 0 0 0-3.755-1.26Z" data-name="Path 6"/></svg>